<?xml version="1.0" standalone="no"?>
<!DOCTYPE svg PUBLIC "-//W3C//DTD SVG 20010904//EN"
 "http://www.w3.org/TR/2001/REC-SVG-20010904/DTD/svg10.dtd">
<svg version="1.0" xmlns="http://www.w3.org/2000/svg"
 width="260.000000pt" height="260.000000pt" viewBox="0 0 260.000000 260.000000"
 preserveAspectRatio="xMidYMid meet">
<metadata>
Created by potrace 1.11, written by Peter Selinger 2001-2013
</metadata>
<g transform="translate(0.000000,260.000000) scale(0.100000,-0.100000)"
fill="#000000" stroke="none">
<path d="M0 1300 l0 -1300 926 0 c509 0 923 3 921 8 -2 4 -114 197 -248 430
l-243 422 -93 0 -93 0 0 160 c0 156 -1 161 -27 210 -16 27 -30 50 -33 50 -3 0
-41 -62 -85 -137 -115 -201 -109 -195 -159 -191 l-41 3 -125 217 -125 217 -3
-265 -2 -265 -93 3 -92 3 -3 433 -2 432 92 0 93 0 149 -261 c82 -143 153 -262
157 -265 4 -2 39 50 78 117 51 90 68 126 61 138 -5 9 -155 268 -333 576 l-324
560 -177 3 -176 2 0 -1300z"/>
<path d="M410 2595 c0 -7 709 -1237 720 -1248 4 -5 11 12 14 37 10 65 60 159
117 217 87 89 268 152 383 133 l39 -6 -31 53 c-17 30 -130 225 -250 434 l-220
380 -386 3 c-212 1 -386 0 -386 -3z"/>
<path d="M1240 2594 c0 -3 174 -308 388 -677 l387 -672 3 248 2 248 98 -3 97
-3 3 -422 2 -421 190 -333 190 -333 0 1187 0 1187 -680 0 c-374 0 -680 -3
-680 -6z"/>
<path d="M1551 1559 c-89 -18 -167 -83 -197 -166 -22 -63 -18 -170 10 -228 25
-54 81 -110 132 -131 96 -40 217 -23 292 42 24 20 44 35 46 33 2 -2 23 -37 46
-78 l44 -74 -30 -24 c-106 -86 -295 -115 -447 -69 -26 8 -47 13 -47 11 0 -1
112 -198 248 -436 l248 -434 352 -3 352 -2 0 76 0 76 -387 665 c-336 577 -393
669 -428 693 -67 46 -157 65 -234 49z"/>
</g>
</svg>
